<svg width="48" height="48" viewBox="0 0 48 48" fill="none" xmlns="http://www.w3.org/2000/svg">
<path d="M23.6155 46.6161C36.1057 46.6161 46.2311 36.4907 46.2311 24.0005C46.2311 11.5103 36.1057 1.38501 23.6155 1.38501C11.1253 1.38501 1 11.5103 1 24.0005C1 36.4907 11.1253 46.6161 23.6155 46.6161Z" fill="#FFC412"/>
<path d="M21.107 36.0351C20.8662 35.8368 20.8662 35.4637 21.107 35.2653C21.9259 34.5908 22.9678 34.1862 24.1041 34.1862C25.2404 34.1862 26.2824 34.5908 27.1013 35.2653C27.342 35.4637 27.342 35.8368 27.1013 36.0351C26.2824 36.7098 25.2397 37.1144 24.1041 37.1144C22.9686 37.1144 21.9259 36.7098 21.107 36.0351ZM19.5232 34.5876L16.5369 31.5507C16.2528 31.2619 16.2606 30.7856 16.5617 30.5164C18.6485 28.6469 21.2989 27.626 24.105 27.626C26.9109 27.626 29.5613 28.6469 31.6481 30.5164C31.9492 30.7864 31.9562 31.2626 31.673 31.5507L28.6865 34.5876C28.4358 34.8426 28.0333 34.8718 27.7577 34.6442C26.7267 33.795 25.451 33.3329 24.1057 33.3329C22.7604 33.3329 21.4847 33.7941 20.4537 34.6442C20.3283 34.7482 20.1758 34.7986 20.0241 34.7986C19.8414 34.7986 19.6602 34.7262 19.5232 34.5876ZM27.7562 19.4151C28.0318 19.1876 28.4343 19.2168 28.685 19.4726L31.6721 22.5094C31.9562 22.7983 31.9485 23.2746 31.6474 23.5437C29.5613 25.4133 26.9101 26.4342 24.1041 26.4342C21.2982 26.4342 18.6478 25.4133 16.5609 23.5437C16.2598 23.2738 16.252 22.7976 16.5361 22.5094L19.5225 19.4726C19.7733 19.2175 20.1758 19.1884 20.4513 19.4151C21.4824 20.2645 22.758 20.7257 24.1033 20.7257C25.4495 20.7266 26.7251 20.2645 27.7562 19.4151ZM21.6875 8.02022L21.679 8.02415C20.0047 8.72709 18.695 10.107 18.0626 11.8324L12.6364 26.7632C12.3616 27.4055 12.2091 28.1133 12.2091 28.8579C12.2091 30.5605 13.0048 32.0727 14.2379 33.0345C14.3246 33.1023 14.4059 33.1754 14.4818 33.255C14.5197 33.2943 14.5584 33.3336 14.5986 33.3722L20.6743 39.0531C21.3198 39.6797 22.1163 40.1221 22.9833 40.3362C23.7682 40.5298 24.5872 40.5298 25.372 40.3362C26.2398 40.1221 27.0355 39.6797 27.6811 39.0531L33.7567 33.3722C33.9348 33.1999 34.0935 33.0338 34.263 32.833C34.2877 32.8038 34.3133 32.7756 34.3403 32.748C35.3172 31.7373 36 30.3936 36 28.8587C36 28.465 35.9566 28.0817 35.876 27.7134C35.8598 27.6378 35.8366 27.563 35.8111 27.4906L30.2703 11.823C29.6387 10.103 28.3336 8.72709 26.6655 8.02415C25.8674 7.68725 25.0198 7.5188 24.1723 7.5188C23.3278 7.5188 22.4833 7.68568 21.6875 8.02022Z" fill="black"/>
<path d="M25.9493 28.8503C25.3819 29.0944 24.7595 29.2307 24.1045 29.2307C23.4496 29.2307 22.8271 29.0944 22.2597 28.8503C22.1062 28.7844 21.9776 28.9812 22.0933 29.1031C22.6012 29.6383 23.3145 29.9724 24.1045 29.9724C24.8946 29.9724 25.6068 29.6383 26.1158 29.1031C26.2152 28.9976 26.1342 28.8372 26.0109 28.8372C25.9915 28.8372 25.9698 28.8416 25.9493 28.8503Z" fill="black"/>
</svg>
