<svg width="48" height="48" viewBox="0 0 48 48" fill="none" xmlns="http://www.w3.org/2000/svg">
<circle cx="24" cy="24" r="24" fill="#F3BA2F"/>
<path fill-rule="evenodd" clip-rule="evenodd" d="M24.0394 7.5L33.1817 12.7783L29.9341 14.6533L24.0394 11.25L18.1447 14.6533L14.8971 12.7783L24.0394 7.5ZM16.4337 15.6412L13.1875 13.767V13.7654L9.75 15.75V19.8716L12.9976 21.7466V17.625L16.4337 15.6412ZM14.7701 22.7699V18.6482L18.2061 16.6645L24.0394 20.0323L29.8727 16.6644L33.3088 18.6482V22.7703L27.971 25.8521L27.971 32.4334L24.0395 34.7032L20.1079 32.4333L20.1079 25.8517L14.7701 22.7699ZM12.9976 23.7223L9.75 21.8473V32.25L18.3968 37.2423V33.4923L12.9976 30.375V23.7223ZM18.3968 31.4455L14.7701 29.3516V24.7457L18.3968 26.8395V31.4455ZM20.1079 34.4801V38.2301L24.0394 40.5L27.971 38.2301L27.971 34.4801L24.0394 36.75L20.1079 34.4801ZM29.682 33.4922V37.2422L38.3288 32.25V21.8477L35.0812 23.7227V30.375L29.682 33.4922ZM33.3088 24.746L29.682 26.8399V31.4455L33.3088 29.3516V24.746ZM35.0812 21.747L38.3288 19.872V15.75L34.8912 13.7653V13.767L31.6451 15.6411L35.0812 17.625V21.747ZM28.1617 15.6766L24.0394 18.0566L19.9171 15.6766L24.0395 13.2966L28.1617 15.6766Z" fill="white"/>
</svg>
