<svg width="48" height="48" viewBox="0 0 48 48" fill="none" xmlns="http://www.w3.org/2000/svg">
<path d="M0 24.1405V23.7641C0.0385538 23.5675 0.0940335 23.3717 0.1119 23.1732C0.25295 21.8708 0.277399 20.5459 0.541633 19.2698C1.77911 13.2831 4.82674 8.39924 9.72871 4.73963C14.2169 1.38867 19.2891 -0.17624 24.9001 0.0157269C26.5072 0.0624013 28.105 0.276861 29.6676 0.655618C34.6288 1.87894 38.8029 4.41968 42.1468 8.28349C46.0369 12.7834 47.9298 18.0559 47.9985 23.9759C48.0199 25.7585 47.8142 27.5366 47.3863 29.2672C45.4229 37.2044 40.7012 42.8087 33.2211 46.0803C30.5789 47.2325 27.734 47.8473 24.8521 47.889C24.6691 47.9091 24.4884 47.9463 24.3124 48H23.7482C23.5567 47.945 23.3606 47.9075 23.1623 47.888C21.2411 47.8563 19.3334 47.5599 17.4931 47.0072C10.9107 45.0527 5.98806 41.0431 2.77117 34.9745C1.08819 31.8177 0.176251 28.3069 0.110019 24.7296C0.0902034 24.5305 0.0533961 24.3334 0 24.1405H0Z" fill="#6B65FF"/>
<path d="M18.5809 21.7502C17.2905 21.7325 16.1638 22.847 16.1257 24.1694C16.0932 25.4508 17.2059 26.583 18.5428 26.624C19.8061 26.6632 20.9821 25.5049 20.9998 24.2114C21.0175 22.9178 19.8824 21.7707 18.5809 21.7521V21.7502Z" fill="white"/>
<path d="M30.209 21.7502C28.9198 21.7334 27.7765 22.8563 27.7504 24.1675C27.7244 25.4517 28.8659 26.6156 30.1672 26.6249C31.4686 26.6343 32.6063 25.5235 32.6249 24.2132C32.6379 22.9215 31.5104 21.7698 30.209 21.7521V21.7502Z" fill="white"/>
<path d="M21.5408 26.625C20.1649 26.625 19.1222 27.6848 19.125 29.0724C19.1354 30.4235 20.2351 31.5104 21.5813 31.4999C22.9275 31.4895 24.0103 30.3857 23.9999 29.0346C23.9971 27.6687 22.9308 26.6241 21.5408 26.6269V26.625Z" fill="white"/>
<path d="M21.5745 21.3731C22.2223 21.3832 22.8465 21.1297 23.3037 20.6708C23.761 20.2119 24.0121 19.587 23.9995 18.9394C23.9796 17.5939 22.8885 16.5106 21.5425 16.5C20.2128 16.5 19.1222 17.6176 19.125 18.9704C19.1278 20.342 20.1827 21.3769 21.5745 21.375V21.3731Z" fill="white"/>
<path d="M27.1765 26.6253C26.5289 26.6148 25.9048 26.8664 25.4473 27.3224C24.9899 27.7785 24.7383 28.3998 24.7504 29.0438C24.7387 29.9207 25.2042 30.7354 25.9675 31.1744C26.7308 31.6134 27.673 31.6081 28.4313 31.1607C29.1896 30.7132 29.6458 29.8934 29.6243 29.0167C29.6224 27.6573 28.565 26.6253 27.1765 26.6272V26.6253Z" fill="white"/>
<path d="M27.1787 21.3728C28.5693 21.3728 29.625 20.338 29.625 18.9684C29.625 17.6175 28.5317 16.5009 27.2051 16.5C25.8569 16.5102 24.7652 17.5979 24.7504 18.9458C24.739 19.5934 24.9913 20.2178 25.4494 20.6757C25.9075 21.1337 26.532 21.386 27.1797 21.3746L27.1787 21.3728Z" fill="white"/>
<path d="M32.993 17.625C32.1086 17.625 31.4982 18.229 31.5001 19.1089C31.4962 19.5101 31.6525 19.8962 31.9342 20.181C32.2159 20.4659 32.5995 20.6258 32.9995 20.625C33.8032 20.6176 34.5153 19.8849 34.4997 19.0804C34.4758 18.2655 33.8066 17.6195 32.994 17.6268L32.993 17.625Z" fill="white"/>
<path d="M25.8745 33.7178C25.8745 32.8829 25.2114 32.2446 24.3526 32.2501C23.9621 32.2464 23.5863 32.3989 23.3089 32.6737C23.0315 32.9485 22.8754 33.3228 22.8755 33.7132C22.862 34.2577 23.1448 34.7667 23.6143 35.0429C24.0838 35.319 24.6662 35.319 25.1357 35.0429C25.6052 34.7667 25.888 34.2577 25.8745 33.7132V33.7178Z" fill="white"/>
<path d="M32.9472 30.375C33.8051 30.3814 34.4851 29.7426 34.4998 28.9191C34.5144 28.1149 33.8014 27.3814 32.9995 27.375C32.5994 27.3745 32.2158 27.5345 31.9341 27.8194C31.6525 28.1043 31.4962 28.4904 31.5001 28.8915C31.4982 29.7527 32.1022 30.3685 32.9472 30.375Z" fill="white"/>
<path d="M24.3844 15.7497C24.7837 15.7572 25.1687 15.5987 25.4501 15.3111C25.7315 15.0234 25.8848 14.6315 25.8745 14.2262C25.8497 13.3998 25.1796 12.7445 24.3649 12.75C23.5503 12.7556 22.8889 13.4199 22.875 14.2466C22.8714 15.098 23.5282 15.7516 24.3844 15.7497Z" fill="white"/>
<path d="M15.8014 17.625C14.9456 17.6186 14.2639 18.2585 14.2502 19.0804C14.2365 19.8858 14.9484 20.6186 15.7501 20.625C16.1501 20.626 16.5338 20.4662 16.8156 20.1814C17.0974 19.8965 17.2538 19.5103 17.2499 19.1089C17.2499 18.2521 16.6452 17.6342 15.8014 17.6287V17.625Z" fill="white"/>
<path d="M15.7698 30.3713C16.6474 30.3713 17.2546 29.7573 17.25 28.8743C17.2506 28.058 16.5981 27.3914 15.7826 27.3754C14.993 27.3552 14.2593 28.0785 14.2501 28.8871C14.2409 29.6958 14.9233 30.3759 15.7698 30.375V30.3713Z" fill="white"/>
<path d="M30.56 36.3712C31.2717 36.3684 31.8531 35.8005 31.8747 35.087C31.8918 34.3853 31.2454 33.7331 30.5419 33.7503C29.8276 33.7618 29.2535 34.3439 29.25 35.0603C29.249 35.8212 29.7984 36.376 30.56 36.375V36.3712Z" fill="white"/>
<path d="M11.4617 22.5004C10.7179 22.5004 10.1128 23.0895 10.1252 23.8098C10.1428 24.5298 10.7182 25.1088 11.4322 25.1249C11.7832 25.1283 12.1207 24.989 12.3685 24.7385C12.6164 24.488 12.7538 24.1474 12.7497 23.7935C12.7568 23.4474 12.6232 23.1134 12.3799 22.8692C12.1367 22.6249 11.8049 22.4917 11.4617 22.5004Z" fill="white"/>
<path d="M36.9114 22.5004C36.5689 22.4917 36.2377 22.6246 35.9948 22.8683C35.7519 23.112 35.6184 23.4452 35.6253 23.7907C35.6214 24.1447 35.7588 24.4855 36.0066 24.7364C36.2543 24.9873 36.5916 25.1273 36.9428 25.125C37.6572 25.1088 38.2328 24.5292 38.2498 23.8089C38.2612 23.0885 37.6571 22.4975 36.9114 22.5004Z" fill="white"/>
<path d="M30.5407 11.6251C29.7782 11.6298 29.2397 12.1901 29.2502 12.959C29.2666 13.6725 29.8468 14.244 30.5607 14.25C31.2741 14.2251 31.8475 13.654 31.875 12.9409C31.8737 12.5891 31.7322 12.2524 31.4817 12.0054C31.2312 11.7584 30.8925 11.6215 30.5407 11.6251Z" fill="white"/>
<path d="M19.125 12.9323C19.125 12.1706 18.5736 11.6203 17.8097 11.625C17.096 11.632 16.5166 12.2037 16.5002 12.917C16.4887 13.5987 17.0983 14.2271 17.7907 14.25C18.1427 14.253 18.4814 14.1157 18.7318 13.8684C18.9822 13.621 19.1237 13.2842 19.125 12.9323Z" fill="white"/>
<path d="M19.125 35.0734C19.1253 34.722 18.9856 34.385 18.7368 34.1367C18.4881 33.8884 18.1507 33.7492 17.7992 33.75C17.1062 33.7643 16.4943 34.3874 16.5 35.0734C16.5113 35.7875 17.0877 36.3637 17.802 36.3749C18.5655 36.3835 19.124 35.8347 19.124 35.0753L19.125 35.0734Z" fill="white"/>
<path d="M37.8955 17.2479C38.5052 17.2297 38.9922 16.7314 39 16.1179C38.988 15.5243 38.4547 14.996 37.8725 15C37.2443 15.0137 36.7439 15.5332 36.7501 16.1651C36.779 16.7776 37.2849 17.2571 37.8945 17.2499L37.8955 17.2479Z" fill="white"/>
<path d="M10.854 17.248C11.4632 17.2558 11.9694 16.7774 11.9999 16.1652C12.0061 15.5332 11.5059 15.0137 10.878 15C10.27 15.0202 9.7793 15.5066 9.75 16.118C9.75667 16.7318 10.2432 17.2312 10.853 17.25L10.854 17.248Z" fill="white"/>
<path d="M11.9999 31.8932C12.0089 31.2765 11.5211 30.7671 10.9056 30.7504C10.29 30.7337 9.77542 31.2159 9.7511 31.8323C9.72215 32.4321 10.2711 33 10.873 33C11.482 32.9883 11.9762 32.5029 11.9999 31.8932Z" fill="white"/>
<path d="M37.893 30.75C37.2839 30.745 36.7795 31.2247 36.75 31.8369C36.7466 32.469 37.2479 32.9868 37.876 33C38.458 33 38.99 32.4707 39 31.878C38.9911 31.2642 38.5028 30.7667 37.893 30.75Z" fill="white"/>
<path d="M24.1721 7.125C23.6571 7.13348 23.2453 7.55589 23.25 8.07097C23.2547 8.58606 23.6741 9.0009 24.1891 9C24.7042 8.9991 25.1221 8.58281 25.125 8.06771C25.118 7.54599 24.6938 7.12636 24.1721 7.125Z" fill="white"/>
<path d="M24.1876 40.5C24.703 40.4999 25.1217 40.0838 25.125 39.5684C25.1282 39.053 24.7148 38.6316 24.1994 38.6251C23.6839 38.6185 23.2599 39.0292 23.25 39.5445C23.2517 40.0645 23.6677 40.4884 24.1876 40.5Z" fill="white"/>
<path d="M6.89088 22.875C6.35965 22.8869 5.98449 23.2991 6.00049 23.8536C6.0004 24.0957 6.09869 24.3274 6.27299 24.4962C6.4473 24.665 6.6828 24.7564 6.9259 24.7497C7.26823 24.7524 7.5851 24.5701 7.75339 24.2734C7.92169 23.9767 7.91488 23.6125 7.73561 23.3223C7.55634 23.0321 7.23288 22.8615 6.89088 22.877V22.875Z" fill="white"/>
<path d="M42.3748 23.7912C42.3799 23.5501 42.2874 23.3172 42.1181 23.1449C41.9488 22.9726 41.717 22.8756 41.4751 22.8756C41.132 22.8631 40.8093 23.0379 40.6332 23.3316C40.4571 23.6253 40.4555 23.9913 40.6291 24.2865C40.8027 24.5817 41.1239 24.7592 41.4671 24.7496C41.9959 24.7496 42.3828 24.3422 42.3748 23.7912Z" fill="white"/>
<path d="M32.813 10.1248C33.0608 10.1299 33.3001 10.0331 33.4766 9.8563C33.653 9.67953 33.7516 9.43781 33.75 9.18609C33.7421 8.69325 33.2697 8.23441 32.7864 8.25041C32.2941 8.28662 31.9043 8.68762 31.875 9.18808C31.8736 9.43973 31.9725 9.68124 32.1492 9.85767C32.3259 10.0341 32.5653 10.1304 32.813 10.1248Z" fill="white"/>
<path d="M15.5747 10.1244C15.8224 10.1267 16.0605 10.027 16.2348 9.84826C16.409 9.66948 16.5046 9.42674 16.4998 9.17529C16.4641 8.6748 16.0682 8.27889 15.5747 8.2501C15.0905 8.24211 14.623 8.7097 14.625 9.20026C14.627 9.45174 14.729 9.69174 14.9078 9.86577C15.0866 10.0398 15.3271 10.1331 15.5747 10.1244Z" fill="white"/>
<path d="M15.5556 37.8753C15.3073 37.8728 15.0684 37.9753 14.8932 38.1595C14.718 38.3437 14.6214 38.5941 14.6251 38.8539C14.6688 39.3652 15.081 39.7553 15.5717 39.7499C16.0624 39.7445 16.4666 39.3454 16.5 38.8333C16.499 38.5743 16.3983 38.3267 16.2206 38.1464C16.0428 37.9661 15.8031 37.8684 15.5556 37.8753Z" fill="white"/>
<path d="M32.813 37.8762C32.5652 37.8708 32.3258 37.9672 32.1491 38.1436C31.9725 38.32 31.8736 38.5614 31.875 38.8128C31.9044 39.3131 32.2947 39.7138 32.7874 39.7495C33.2707 39.7665 33.7421 39.3082 33.75 38.8148C33.7516 38.5632 33.6531 38.3216 33.4767 38.1446C33.3003 37.9677 33.061 37.8706 32.813 37.8752V37.8762Z" fill="white"/>
</svg>
