<?xml version="1.0" encoding="UTF-8"?>
<!DOCTYPE svg PUBLIC "-//W3C//DTD SVG 1.1//EN" "http://www.w3.org/Graphics/SVG/1.1/DTD/svg11.dtd">
<svg xmlns="http://www.w3.org/2000/svg" version="1.1" width="192px" height="192px" style="shape-rendering:geometricPrecision; text-rendering:geometricPrecision; image-rendering:optimizeQuality; fill-rule:evenodd; clip-rule:evenodd" xmlns:xlink="http://www.w3.org/1999/xlink">
<g><path style="opacity:0.943" fill="#97832f" d="M 81.5,-0.5 C 90.8333,-0.5 100.167,-0.5 109.5,-0.5C 154.502,9.16869 181.835,36.502 191.5,81.5C 191.5,90.8333 191.5,100.167 191.5,109.5C 181.831,154.502 154.498,181.835 109.5,191.5C 100.167,191.5 90.8333,191.5 81.5,191.5C 36.498,181.831 9.16465,154.498 -0.5,109.5C -0.5,100.167 -0.5,90.8333 -0.5,81.5C 9.16869,36.498 36.502,9.16465 81.5,-0.5 Z"/></g>
<g><path style="opacity:1" fill="#7e6d2b" d="M 84.5,2.5 C 132.796,0.676509 165.963,22.0098 184,66.5C 194.844,105.3 185.677,138.467 156.5,166C 122.675,192.026 86.6751,195.36 48.5,176C 10.3739,150.225 -3.79273,114.725 6,69.5C 15.519,39.9809 34.6857,19.4809 63.5,8C 70.5198,5.73081 77.5198,3.89748 84.5,2.5 Z"/></g>
<g><path style="opacity:1" fill="#b99e33" d="M 162.5,156.5 C 162.618,145.473 162.118,134.473 161,123.5C 158.659,112.984 155.825,102.651 152.5,92.5C 152.153,78.4492 147.486,66.1159 138.5,55.5C 139.329,54.6676 140.162,55.001 141,56.5C 145.667,44.8333 145.667,33.1667 141,21.5C 137.334,17.6453 133.834,17.6453 130.5,21.5C 131.815,23.3159 133.315,24.9825 135,26.5C 135.494,28.1341 135.66,29.8008 135.5,31.5C 133.473,31.6621 131.473,31.4955 129.5,31C 130.634,29.984 130.301,29.3173 128.5,29C 129.451,28.2825 129.617,27.4491 129,26.5C 126.812,29.5672 124.645,32.5672 122.5,35.5C 122.77,32.6874 123.27,30.0208 124,27.5C 120.998,31.6681 117.498,35.3348 113.5,38.5C 105.343,37.6706 97.0101,37.1706 88.5,37C 85.1489,36.9428 82.1489,36.1094 79.5,34.5C 77.8832,30.5389 76.0499,26.2056 74,21.5C 72.5945,18.5914 70.4278,16.5914 67.5,15.5C 66.5,14.1667 65.5,14.1667 64.5,15.5C 63.4666,20.3324 63.4666,25.3324 64.5,30.5C 64.5886,34.0668 63.7553,37.4001 62,40.5C 56.7334,41.1451 51.5667,41.8118 46.5,42.5C 45.6773,45.977 45.1773,49.6437 45,53.5C 39.5836,60.6657 36.0836,68.6657 34.5,77.5C 33.25,80.0668 32.0833,82.7334 31,85.5C 30.5005,91.4908 30.3338,97.4908 30.5,103.5C 31.0933,110.611 33.0933,117.278 36.5,123.5C 34.4513,135.579 33.118,147.913 32.5,160.5C 11.3811,139.655 2.21444,114.321 5,84.5C 11.3828,46.2243 32.8828,20.7243 69.5,8C 107.479,-0.966446 139.646,8.86689 166,37.5C 190.64,71.2435 192.974,106.577 173,143.5C 170.015,148.311 166.515,152.644 162.5,156.5 Z"/></g>
<g><path style="opacity:1" fill="#a37e35" d="M 138.5,55.5 C 137.167,54.8333 136.167,53.8333 135.5,52.5C 139.965,46.9701 141.465,40.6368 140,33.5C 138.808,31.3498 137.308,30.6832 135.5,31.5C 135.66,29.8008 135.494,28.1341 135,26.5C 133.315,24.9825 131.815,23.3159 130.5,21.5C 133.834,17.6453 137.334,17.6453 141,21.5C 145.667,33.1667 145.667,44.8333 141,56.5C 140.162,55.001 139.329,54.6676 138.5,55.5 Z"/></g>
<g><path style="opacity:1" fill="#dbbd6a" d="M 64.5,15.5 C 66.7717,18.0983 68.1051,21.0983 68.5,24.5C 68.029,30.2444 66.3623,35.5777 63.5,40.5C 79.4861,41.4994 95.4861,41.8328 111.5,41.5C 113.099,41.2322 114.432,41.5655 115.5,42.5C 92.5,42.5 69.5,42.5 46.5,42.5C 51.5667,41.8118 56.7334,41.1451 62,40.5C 63.7553,37.4001 64.5886,34.0668 64.5,30.5C 63.4666,25.3324 63.4666,20.3324 64.5,15.5 Z"/></g>
<g><path style="opacity:1" fill="#b58734" d="M 67.5,15.5 C 70.4278,16.5914 72.5945,18.5914 74,21.5C 76.0499,26.2056 77.8832,30.5389 79.5,34.5C 76.5515,35.0126 73.7181,35.0126 71,34.5C 70.0615,28.1029 68.8948,21.7696 67.5,15.5 Z"/></g>
<g><path style="opacity:1" fill="#b29244" d="M 135.5,31.5 C 131.147,33.6634 127.147,36.4967 123.5,40C 122.316,41.1455 122.316,42.3121 123.5,43.5C 123.5,44.1667 123.5,44.8333 123.5,45.5C 121.426,44.4861 119.426,43.4861 117.5,42.5C 119.89,40.7334 121.557,38.4001 122.5,35.5C 124.645,32.5672 126.812,29.5672 129,26.5C 129.617,27.4491 129.451,28.2825 128.5,29C 130.301,29.3173 130.634,29.984 129.5,31C 131.473,31.4955 133.473,31.6621 135.5,31.5 Z"/></g>
<g><path style="opacity:1" fill="#8e6e38" d="M 135.5,52.5 C 133.973,52.573 132.973,51.9063 132.5,50.5C 134.153,47.1932 135.82,43.8599 137.5,40.5C 134.216,39.343 130.882,39.1764 127.5,40C 125.65,40.6897 124.316,41.8564 123.5,43.5C 122.316,42.3121 122.316,41.1455 123.5,40C 127.147,36.4967 131.147,33.6634 135.5,31.5C 137.308,30.6832 138.808,31.3498 140,33.5C 141.465,40.6368 139.965,46.9701 135.5,52.5 Z"/></g>
<g><path style="opacity:1" fill="#a67c30" d="M 122.5,35.5 C 121.557,38.4001 119.89,40.7334 117.5,42.5C 116.833,42.5 116.167,42.5 115.5,42.5C 114.432,41.5655 113.099,41.2322 111.5,41.5C 112.167,40.5 112.833,39.5 113.5,38.5C 117.498,35.3348 120.998,31.6681 124,27.5C 123.27,30.0208 122.77,32.6874 122.5,35.5 Z"/></g>
<g><path style="opacity:1" fill="#cfa640" d="M 67.5,15.5 C 68.8948,21.7696 70.0615,28.1029 71,34.5C 73.7181,35.0126 76.5515,35.0126 79.5,34.5C 82.1489,36.1094 85.1489,36.9428 88.5,37C 97.0101,37.1706 105.343,37.6706 113.5,38.5C 112.833,39.5 112.167,40.5 111.5,41.5C 95.4861,41.8328 79.4861,41.4994 63.5,40.5C 66.3623,35.5777 68.029,30.2444 68.5,24.5C 68.1051,21.0983 66.7717,18.0983 64.5,15.5C 65.5,14.1667 66.5,14.1667 67.5,15.5 Z"/></g>
<g><path style="opacity:1" fill="#574027" d="M 132.5,50.5 C 131.128,49.4884 129.795,48.4884 128.5,47.5C 130.879,46.4381 130.879,45.1048 128.5,43.5C 126.974,43.9943 125.641,44.661 124.5,45.5C 124.167,45.5 123.833,45.5 123.5,45.5C 123.5,44.8333 123.5,44.1667 123.5,43.5C 124.316,41.8564 125.65,40.6897 127.5,40C 130.882,39.1764 134.216,39.343 137.5,40.5C 135.82,43.8599 134.153,47.1932 132.5,50.5 Z"/></g>
<g><path style="opacity:1" fill="#f4edda" d="M 46.5,42.5 C 69.5,42.5 92.5,42.5 115.5,42.5C 116.167,42.5 116.833,42.5 117.5,42.5C 119.426,43.4861 121.426,44.4861 123.5,45.5C 123.833,45.5 124.167,45.5 124.5,45.5C 125.514,46.6737 126.847,47.3404 128.5,47.5C 129.795,48.4884 131.128,49.4884 132.5,50.5C 132.973,51.9063 133.973,52.573 135.5,52.5C 136.167,53.8333 137.167,54.8333 138.5,55.5C 147.486,66.1159 152.153,78.4492 152.5,92.5C 154.356,112.5 148.023,129.166 133.5,142.5C 130.688,144.408 127.688,146.075 124.5,147.5C 124.077,146.735 123.743,145.902 123.5,145C 126.682,143 128.349,140.167 128.5,136.5C 127.5,136.5 126.5,136.5 125.5,136.5C 126.138,134.54 126.138,132.707 125.5,131C 127.26,130.035 127.594,128.868 126.5,127.5C 124.922,128.64 123.256,129.14 121.5,129C 129.829,118.674 135.496,107.007 138.5,94C 136.672,87.6594 135.006,81.3261 133.5,75C 127.643,74.7207 121.809,74.2207 116,73.5C 114.624,73.6842 113.791,74.3509 113.5,75.5C 112.833,74.8333 112.167,74.1667 111.5,73.5C 108.545,68.0145 103.878,66.0145 97.5,67.5C 95.1667,67.5 92.8333,67.5 90.5,67.5C 89.1851,68.4756 87.8518,69.4756 86.5,70.5C 84.5,67.8333 82.5,67.8333 80.5,70.5C 79.6786,73.4465 79.1786,76.4465 79,79.5C 78.6322,80.91 77.7989,81.91 76.5,82.5C 75.7786,77.9588 73.9452,73.9588 71,70.5C 66.8228,71.8484 63.3228,74.1818 60.5,77.5C 60.5,75.1667 60.5,72.8333 60.5,70.5C 60.5,69.5 60.5,68.5 60.5,67.5C 58.8333,67.5 57.1667,67.5 55.5,67.5C 54.1667,67.5 52.8333,67.5 51.5,67.5C 50.1667,67.5 48.8333,67.5 47.5,67.5C 46.5655,66.4324 46.2322,65.099 46.5,63.5C 46.5,56.5 46.5,49.5 46.5,42.5 Z"/></g>
<g><path style="opacity:1" fill="#ab8c45" d="M 128.5,47.5 C 126.847,47.3404 125.514,46.6737 124.5,45.5C 125.641,44.661 126.974,43.9943 128.5,43.5C 130.879,45.1048 130.879,46.4381 128.5,47.5 Z"/></g>
<g><path style="opacity:1" fill="#e6c973" d="M 46.5,42.5 C 46.5,49.5 46.5,56.5 46.5,63.5C 44.3101,64.8022 42.3101,66.4689 40.5,68.5C 39.2237,72.073 37.2237,75.073 34.5,77.5C 36.0836,68.6657 39.5836,60.6657 45,53.5C 45.1773,49.6437 45.6773,45.977 46.5,42.5 Z"/></g>
<g><path style="opacity:1" fill="#423d2a" d="M 55.5,67.5 C 57.1667,67.5 58.8333,67.5 60.5,67.5C 60.5,68.5 60.5,69.5 60.5,70.5C 60.1667,70.5 59.8333,70.5 59.5,70.5C 58.1805,71.9418 56.5138,72.6085 54.5,72.5C 55.0906,71.8485 55.7573,71.1818 56.5,70.5C 55.8728,69.5832 55.5394,68.5832 55.5,67.5 Z"/></g>
<g><path style="opacity:1" fill="#2e2b19" d="M 90.5,67.5 C 92.8333,67.5 95.1667,67.5 97.5,67.5C 99.8693,68.69 101.869,70.3567 103.5,72.5C 101.231,74.5822 98.7312,76.5822 96,78.5C 95.3292,77.7476 94.4959,77.4142 93.5,77.5C 92.4749,76.6261 91.8082,75.4595 91.5,74C 92.9958,72.6693 94.3291,71.1693 95.5,69.5C 93.9052,68.5661 92.2385,68.5661 90.5,69.5C 90.5,68.8333 90.5,68.1667 90.5,67.5 Z"/></g>
<g><path style="opacity:1" fill="#8e7f56" d="M 51.5,67.5 C 52.8333,67.5 54.1667,67.5 55.5,67.5C 55.5394,68.5832 55.8728,69.5832 56.5,70.5C 55.7573,71.1818 55.0906,71.8485 54.5,72.5C 52.7497,71.3406 51.7497,69.674 51.5,67.5 Z"/></g>
<g><path style="opacity:1" fill="#e5c46c" d="M 47.5,67.5 C 48.8333,67.5 50.1667,67.5 51.5,67.5C 51.7497,69.674 52.7497,71.3406 54.5,72.5C 56.5138,72.6085 58.1805,71.9418 59.5,70.5C 59.7839,73.7766 59.4505,76.9433 58.5,80C 55.1201,79.757 51.7868,79.5903 48.5,79.5C 46.2855,78.0761 45.2855,75.9094 45.5,73C 45.3948,70.8218 46.0615,68.9885 47.5,67.5 Z"/></g>
<g><path style="opacity:1" fill="#d8cd9f" d="M 93.5,77.5 C 92.791,78.404 91.791,78.7373 90.5,78.5C 90.5,75.5 90.5,72.5 90.5,69.5C 92.2385,68.5661 93.9052,68.5661 95.5,69.5C 94.3291,71.1693 92.9958,72.6693 91.5,74C 91.8082,75.4595 92.4749,76.6261 93.5,77.5 Z"/></g>
<g><path style="opacity:1" fill="#f3ebb6" d="M 46.5,63.5 C 46.2322,65.099 46.5655,66.4324 47.5,67.5C 46.0615,68.9885 45.3948,70.8218 45.5,73C 45.2855,75.9094 46.2855,78.0761 48.5,79.5C 41.9562,83.5837 39.1228,89.5837 40,97.5C 38.7556,94.3618 38.089,91.0284 38,87.5C 36.4301,93.0527 36.0968,98.7194 37,104.5C 38.2692,105.905 38.7692,107.571 38.5,109.5C 37.1779,109.33 36.0113,109.663 35,110.5C 33.7015,107.994 32.7015,105.327 32,102.5C 31.6174,103.056 31.1174,103.389 30.5,103.5C 30.3338,97.4908 30.5005,91.4908 31,85.5C 32.0833,82.7334 33.25,80.0668 34.5,77.5C 37.2237,75.073 39.2237,72.073 40.5,68.5C 42.3101,66.4689 44.3101,64.8022 46.5,63.5 Z"/></g>
<g><path style="opacity:1" fill="#f8f3e4" d="M 90.5,67.5 C 90.5,68.1667 90.5,68.8333 90.5,69.5C 90.5,72.5 90.5,75.5 90.5,78.5C 90.5,78.8333 90.5,79.1667 90.5,79.5C 90.5,81.8333 90.5,84.1667 90.5,86.5C 90.5,99.1667 90.5,111.833 90.5,124.5C 107.168,126.674 116.335,119.34 118,102.5C 119.6,92.9274 118.1,83.9274 113.5,75.5C 113.791,74.3509 114.624,73.6842 116,73.5C 121.809,74.2207 127.643,74.7207 133.5,75C 135.006,81.3261 136.672,87.6594 138.5,94C 135.496,107.007 129.829,118.674 121.5,129C 123.256,129.14 124.922,128.64 126.5,127.5C 127.594,128.868 127.26,130.035 125.5,131C 126.138,132.707 126.138,134.54 125.5,136.5C 126.5,136.5 127.5,136.5 128.5,136.5C 128.349,140.167 126.682,143 123.5,145C 123.743,145.902 124.077,146.735 124.5,147.5C 122.076,148.03 119.743,148.864 117.5,150C 105.838,150.5 94.1714,150.667 82.5,150.5C 74.1667,150.5 65.8333,150.5 57.5,150.5C 53.8333,150.5 50.1667,150.5 46.5,150.5C 46.5,141.833 46.5,133.167 46.5,124.5C 48.5,124.5 50.5,124.5 52.5,124.5C 54.8333,124.5 57.1667,124.5 59.5,124.5C 59.5,122.5 59.5,120.5 59.5,118.5C 59.8333,118.5 60.1667,118.5 60.5,118.5C 62.8435,116.289 65.5102,115.955 68.5,117.5C 70.0935,115.34 71.7601,115.173 73.5,117C 76.4816,117.498 79.4816,117.665 82.5,117.5C 83.2311,115.251 84.2311,113.084 85.5,111C 85.3552,110.228 85.0219,109.561 84.5,109C 79.795,108.838 75.1284,109.338 70.5,110.5C 62.8971,110.042 60.5638,106.542 63.5,100C 63.0426,99.586 62.7093,99.086 62.5,98.5C 64.0788,95.5739 65.0788,92.4072 65.5,89C 64.6225,86.6225 62.9558,85.1225 60.5,84.5C 60.5,82.1667 60.5,79.8333 60.5,77.5C 63.3228,74.1818 66.8228,71.8484 71,70.5C 73.9452,73.9588 75.7786,77.9588 76.5,82.5C 77.7989,81.91 78.6322,80.91 79,79.5C 79.1786,76.4465 79.6786,73.4465 80.5,70.5C 82.5,67.8333 84.5,67.8333 86.5,70.5C 87.8518,69.4756 89.1851,68.4756 90.5,67.5 Z"/></g>
<g><path style="opacity:1" fill="#e3cd87" d="M 111.5,73.5 C 112.167,74.1667 112.833,74.8333 113.5,75.5C 118.1,83.9274 119.6,92.9274 118,102.5C 116.335,119.34 107.168,126.674 90.5,124.5C 90.5,111.833 90.5,99.1667 90.5,86.5C 91.2646,86.9234 92.0979,87.2568 93,87.5C 97.108,85.5293 101.275,83.6959 105.5,82C 107.76,79.2578 109.76,76.4245 111.5,73.5 Z"/></g>
<g><path style="opacity:1" fill="#cfb058" d="M 97.5,67.5 C 103.878,66.0145 108.545,68.0145 111.5,73.5C 109.76,76.4245 107.76,79.2578 105.5,82C 101.275,83.6959 97.108,85.5293 93,87.5C 92.0979,87.2568 91.2646,86.9234 90.5,86.5C 90.5,84.1667 90.5,81.8333 90.5,79.5C 96.7757,80.5321 101.109,78.1988 103.5,72.5C 101.869,70.3567 99.8693,68.69 97.5,67.5 Z"/></g>
<g><path style="opacity:1" fill="#655d3c" d="M 103.5,72.5 C 101.109,78.1988 96.7757,80.5321 90.5,79.5C 90.5,79.1667 90.5,78.8333 90.5,78.5C 91.791,78.7373 92.791,78.404 93.5,77.5C 94.4959,77.4142 95.3292,77.7476 96,78.5C 98.7312,76.5822 101.231,74.5822 103.5,72.5 Z"/></g>
<g><path style="opacity:1" fill="#292614" d="M 59.5,84.5 C 59.5,90.8333 59.5,97.1667 59.5,103.5C 57.3254,103.318 55.3254,102.651 53.5,101.5C 51.561,102.935 49.8943,102.602 48.5,100.5C 45.1883,96.826 43.8549,92.4927 44.5,87.5C 44.8588,85.629 45.8588,84.129 47.5,83C 51.8064,82.0876 55.8064,82.5876 59.5,84.5 Z"/></g>
<g><path style="opacity:1" fill="#6b6140" d="M 44.5,87.5 C 43.8549,92.4927 45.1883,96.826 48.5,100.5C 49.8943,102.602 51.561,102.935 53.5,101.5C 55.3254,102.651 57.3254,103.318 59.5,103.5C 59.5,104.833 59.5,106.167 59.5,107.5C 54.8362,105.43 50.1695,105.097 45.5,106.5C 43.5406,104.754 42.2073,102.587 41.5,100C 42.2022,95.6304 43.2022,91.4637 44.5,87.5 Z"/></g>
<g><path style="opacity:1" fill="#edda96" d="M 59.5,70.5 C 59.8333,70.5 60.1667,70.5 60.5,70.5C 60.5,72.8333 60.5,75.1667 60.5,77.5C 60.5,79.8333 60.5,82.1667 60.5,84.5C 60.1667,84.5 59.8333,84.5 59.5,84.5C 55.8064,82.5876 51.8064,82.0876 47.5,83C 45.8588,84.129 44.8588,85.629 44.5,87.5C 43.2022,91.4637 42.2022,95.6304 41.5,100C 42.2073,102.587 43.5406,104.754 45.5,106.5C 45.5,108.167 45.5,109.833 45.5,111.5C 47.5665,115.966 49.8998,120.299 52.5,124.5C 50.5,124.5 48.5,124.5 46.5,124.5C 46.5,133.167 46.5,141.833 46.5,150.5C 45.6721,144.347 45.1721,138.013 45,131.5C 44.1475,129.875 43.1475,129.542 42,130.5C 40.3029,127.98 38.4695,125.647 36.5,123.5C 33.0933,117.278 31.0933,110.611 30.5,103.5C 31.1174,103.389 31.6174,103.056 32,102.5C 32.7015,105.327 33.7015,107.994 35,110.5C 36.0113,109.663 37.1779,109.33 38.5,109.5C 38.7692,107.571 38.2692,105.905 37,104.5C 36.0968,98.7194 36.4301,93.0527 38,87.5C 38.089,91.0284 38.7556,94.3618 40,97.5C 39.1228,89.5837 41.9562,83.5837 48.5,79.5C 51.7868,79.5903 55.1201,79.757 58.5,80C 59.4505,76.9433 59.7839,73.7766 59.5,70.5 Z"/></g>
<g><path style="opacity:1" fill="#2a2714" d="M 45.5,106.5 C 50.1695,105.097 54.8362,105.43 59.5,107.5C 59.6309,108.376 59.2975,109.043 58.5,109.5C 54.1592,108.39 49.8258,107.39 45.5,106.5 Z"/></g>
<g><path style="opacity:1" fill="#7a6e4e" d="M 59.5,84.5 C 59.8333,84.5 60.1667,84.5 60.5,84.5C 60.5,95.8333 60.5,107.167 60.5,118.5C 60.1667,118.5 59.8333,118.5 59.5,118.5C 58.0695,118.421 56.7362,118.754 55.5,119.5C 51.8591,117.19 48.5257,114.523 45.5,111.5C 45.5,109.833 45.5,108.167 45.5,106.5C 49.8258,107.39 54.1592,108.39 58.5,109.5C 59.2975,109.043 59.6309,108.376 59.5,107.5C 59.5,106.167 59.5,104.833 59.5,103.5C 59.5,97.1667 59.5,90.8333 59.5,84.5 Z"/></g>
<g><path style="opacity:1" fill="#e2dfd8" d="M 60.5,84.5 C 62.9558,85.1225 64.6225,86.6225 65.5,89C 65.0788,92.4072 64.0788,95.5739 62.5,98.5C 62.7093,99.086 63.0426,99.586 63.5,100C 60.5638,106.542 62.8971,110.042 70.5,110.5C 75.1284,109.338 79.795,108.838 84.5,109C 85.0219,109.561 85.3552,110.228 85.5,111C 84.2311,113.084 83.2311,115.251 82.5,117.5C 79.4816,117.665 76.4816,117.498 73.5,117C 71.7601,115.173 70.0935,115.34 68.5,117.5C 65.5102,115.955 62.8435,116.289 60.5,118.5C 60.5,107.167 60.5,95.8333 60.5,84.5 Z"/></g>
<g><path style="opacity:1" fill="#dac173" d="M 45.5,111.5 C 48.5257,114.523 51.8591,117.19 55.5,119.5C 56.7362,118.754 58.0695,118.421 59.5,118.5C 59.5,120.5 59.5,122.5 59.5,124.5C 57.1667,124.5 54.8333,124.5 52.5,124.5C 49.8998,120.299 47.5665,115.966 45.5,111.5 Z"/></g>
<g><path style="opacity:1" fill="#e2c877" d="M 36.5,123.5 C 38.4695,125.647 40.3029,127.98 42,130.5C 43.1475,129.542 44.1475,129.875 45,131.5C 45.1721,138.013 45.6721,144.347 46.5,150.5C 50.1667,150.5 53.8333,150.5 57.5,150.5C 58.0745,155.713 59.0745,160.88 60.5,166C 59.0468,168.405 57.7134,170.905 56.5,173.5C 54.713,173.943 53.0463,174.276 51.5,174.5C 44.0364,171.37 37.703,166.703 32.5,160.5C 33.118,147.913 34.4513,135.579 36.5,123.5 Z"/></g>
<g><path style="opacity:1" fill="#c5a041" d="M 152.5,92.5 C 155.825,102.651 158.659,112.984 161,123.5C 162.118,134.473 162.618,145.473 162.5,156.5C 155.264,165.074 146.597,171.741 136.5,176.5C 138.482,172.854 141.149,169.854 144.5,167.5C 148.106,163.719 151.606,159.719 155,155.5C 155.551,148.766 156.218,142.099 157,135.5C 155.938,134.903 154.772,134.57 153.5,134.5C 147.472,137.804 141.306,140.804 135,143.5C 134.617,142.944 134.117,142.611 133.5,142.5C 148.023,129.166 154.356,112.5 152.5,92.5 Z"/></g>
<g><path style="opacity:1" fill="#d7c072" d="M 144.5,167.5 C 143.769,167.058 142.769,166.891 141.5,167C 144.681,162.968 147.348,158.635 149.5,154C 148.833,153.333 148.167,152.667 147.5,152C 147.986,149.973 147.986,147.807 147.5,145.5C 144.482,145.335 141.482,145.502 138.5,146C 136.404,147.766 134.071,149.099 131.5,150C 128.167,154.667 124.167,158.667 119.5,162C 116.367,161.954 113.7,162.954 111.5,165C 107.05,167.076 102.384,168.743 97.5,170C 93.9951,174.001 89.9951,177.501 85.5,180.5C 84.914,180.291 84.414,179.957 84,179.5C 82.2699,180.74 80.4366,181.74 78.5,182.5C 77.3527,182.182 76.5194,181.516 76,180.5C 75.3292,181.252 74.4959,181.586 73.5,181.5C 74.2341,180.292 74.5674,178.959 74.5,177.5C 69.126,179.932 64.7927,178.766 61.5,174C 63.3527,171.429 65.0194,168.762 66.5,166C 67.4491,165.383 68.2825,165.549 69,166.5C 70.6463,164.403 72.6463,162.736 75,161.5C 75.49,160.207 75.6567,158.873 75.5,157.5C 76.8333,157.5 78.1667,157.5 79.5,157.5C 80.0427,154.962 81.0427,152.628 82.5,150.5C 94.1714,150.667 105.838,150.5 117.5,150C 119.743,148.864 122.076,148.03 124.5,147.5C 127.688,146.075 130.688,144.408 133.5,142.5C 134.117,142.611 134.617,142.944 135,143.5C 141.306,140.804 147.472,137.804 153.5,134.5C 154.772,134.57 155.938,134.903 157,135.5C 156.218,142.099 155.551,148.766 155,155.5C 151.606,159.719 148.106,163.719 144.5,167.5 Z"/></g>
<g><path style="opacity:1" fill="#dfcc80" d="M 144.5,167.5 C 141.149,169.854 138.482,172.854 136.5,176.5C 116.035,186.709 94.7021,189.042 72.5,183.5C 72.8333,182.833 73.1667,182.167 73.5,181.5C 74.4959,181.586 75.3292,181.252 76,180.5C 76.5194,181.516 77.3527,182.182 78.5,182.5C 80.4366,181.74 82.2699,180.74 84,179.5C 84.414,179.957 84.914,180.291 85.5,180.5C 89.9951,177.501 93.9951,174.001 97.5,170C 102.384,168.743 107.05,167.076 111.5,165C 113.7,162.954 116.367,161.954 119.5,162C 124.167,158.667 128.167,154.667 131.5,150C 134.071,149.099 136.404,147.766 138.5,146C 141.482,145.502 144.482,145.335 147.5,145.5C 147.986,147.807 147.986,149.973 147.5,152C 148.167,152.667 148.833,153.333 149.5,154C 147.348,158.635 144.681,162.968 141.5,167C 142.769,166.891 143.769,167.058 144.5,167.5 Z"/></g>
<g><path style="opacity:1" fill="#c6a850" d="M 57.5,150.5 C 65.8333,150.5 74.1667,150.5 82.5,150.5C 81.0427,152.628 80.0427,154.962 79.5,157.5C 78.1667,157.5 76.8333,157.5 75.5,157.5C 75.6567,158.873 75.49,160.207 75,161.5C 72.6463,162.736 70.6463,164.403 69,166.5C 68.2825,165.549 67.4491,165.383 66.5,166C 65.0194,168.762 63.3527,171.429 61.5,174C 64.7927,178.766 69.126,179.932 74.5,177.5C 74.5674,178.959 74.2341,180.292 73.5,181.5C 73.1667,182.167 72.8333,182.833 72.5,183.5C 64.8312,181.826 57.8312,178.826 51.5,174.5C 53.0463,174.276 54.713,173.943 56.5,173.5C 57.7134,170.905 59.0468,168.405 60.5,166C 59.0745,160.88 58.0745,155.713 57.5,150.5 Z"/></g>
</svg>
