<svg width="48" height="48" viewBox="0 0 48 48" fill="none" xmlns="http://www.w3.org/2000/svg">
    <defs>
        <linearGradient id="paint0_linear" x1="28.6742" y1="17.2678" x2="39.6358" y2="28.6903"
            gradientUnits="userSpaceOnUse">
            <stop offset="0.21" stop-color="#F15A24" />
            <stop offset="0.6841" stop-color="#FBB03B" />
        </linearGradient>
        <linearGradient id="paint1_linear" x1="20.3195" y1="30.7342" x2="9.35792" y2="19.3117"
            gradientUnits="userSpaceOnUse">
            <stop offset="0.21" stop-color="#ED1E79" />
            <stop offset="0.8929" stop-color="#522785" />
        </linearGradient>
        <clipPath id="clip0">
            <rect width="33" height="16" fill="white" transform="translate(8 16)" />
        </clipPath>
    </defs>
    <circle cx="24" cy="24" r="24" fill="#ECECEC" />
    <g clip-path="url(#clip0)">
        <path
            d="M32.9799 16C31.1405 16 29.1263 16.97 27.0017 18.8832C25.9992 19.782 25.1162 20.7608 24.4724 21.535C24.4724 21.535 25.5025 22.683 26.6338 23.9199C27.25 23.1724 28.1237 22.158 29.1447 21.2414C31.0301 19.5328 32.2625 19.1858 32.9707 19.1858C35.6196 19.1858 37.7717 21.3393 37.7717 24C37.7717 26.634 35.6196 28.7875 32.9707 28.8142C32.842 28.8142 32.6948 28.7964 32.5109 28.7608C33.2834 29.1079 34.1204 29.3571 34.9022 29.3571C39.7584 29.3571 40.7149 26.109 40.7701 25.8776C40.908 25.2814 40.9908 24.6585 40.9908 24.0178C40.9816 19.5951 37.3947 16 32.9799 16Z"
            fill="url(#paint0_linear)" />
        <path
            d="M16.0109 32.0001C17.8503 32.0001 19.8646 31.0302 21.9891 29.1169C22.9916 28.2182 23.8746 27.2393 24.5184 26.4651C24.5184 26.4651 23.4883 25.3172 22.357 24.0802C21.7408 24.8277 20.8671 25.8422 19.8462 26.7588C17.9607 28.4495 16.7191 28.8144 16.0201 28.8144C13.3712 28.8144 11.2191 26.6609 11.2191 24.0001C11.2191 21.3661 13.3712 19.2126 16.0201 19.1859C16.1488 19.1859 16.296 19.2037 16.4799 19.2393C15.7074 18.8923 14.8704 18.6431 14.0886 18.6431C9.23244 18.6342 8.27592 21.8822 8.22074 22.1225C8.08278 22.7187 8 23.3416 8 23.9823C8 28.405 11.587 32.0001 16.0109 32.0001Z"
            fill="url(#paint1_linear)" />
        <path fill-rule="evenodd" clip-rule="evenodd"
            d="M19.7082 21.3126C19.1748 20.8142 16.5811 18.7764 14.0979 18.7052C9.66474 18.5984 8.36792 21.713 8.24835 22.1135C9.1037 18.6251 12.2676 16.0178 16.0201 16C19.0828 16 22.1823 18.9099 24.4724 21.535L24.4816 21.5261C24.4816 21.5261 25.5117 22.6741 26.643 23.911C26.643 23.911 27.9306 25.3793 29.2918 26.6696C29.8253 27.168 32.4097 29.1791 34.893 29.2503C39.4457 29.3749 40.7057 26.0823 40.7701 25.8331C39.9331 29.3482 36.7601 31.9644 32.9892 31.9822C29.9264 31.9822 26.827 29.0723 24.5276 26.4472C24.5276 26.4561 24.5184 26.4561 24.5184 26.465C24.5184 26.465 23.4883 25.317 22.3571 24.0801C22.3662 24.0801 21.0786 22.6029 19.7082 21.3126ZM8.24835 22.1491C8.24835 22.1402 8.24835 22.1313 8.25755 22.1224C8.24835 22.1313 8.24835 22.1402 8.24835 22.1491Z"
            fill="#29ABE2" />
    </g>
</svg>
